<?xml version="1.0" encoding="UTF-8"?>
<svg xmlns="http://www.w3.org/2000/svg" xmlns:xlink="http://www.w3.org/1999/xlink" width="300px" height="82px" viewBox="0 0 300 82" version="1.1">
<g id="surface1">
<path style=" stroke:none;fill-rule:nonzero;fill:rgb(0%,0%,0%);fill-opacity:1;" d="M 8.25 6.171875 C 6.550781 6.398438 4.859375 7.53125 4.179688 8.898438 C 2.671875 11.929688 4.160156 15.378906 7.378906 16.339844 C 9.230469 16.878906 11.449219 16.441406 12.75 15.261719 L 13.25 14.800781 L 12.5 14.109375 L 11.75 13.421875 L 11.410156 13.730469 C 10.441406 14.578125 8.921875 14.808594 7.78125 14.28125 C 6.609375 13.738281 6 12.730469 6 11.351562 C 6 10.398438 6.269531 9.660156 6.808594 9.101562 C 8.011719 7.871094 10.078125 7.808594 11.398438 8.96875 L 11.75 9.269531 L 12.5 8.578125 L 13.25 7.890625 L 12.75 7.441406 C 11.660156 6.460938 9.871094 5.960938 8.25 6.171875 Z M 8.25 6.171875 "/>
<path style=" stroke:none;fill-rule:nonzero;fill:rgb(0%,0%,0%);fill-opacity:1;" d="M 18.738281 6.191406 C 17.519531 6.390625 16.460938 6.921875 15.648438 7.738281 C 14.628906 8.769531 14.199219 9.851562 14.199219 11.351562 C 14.199219 13.78125 15.628906 15.640625 18.058594 16.359375 C 18.859375 16.601562 20.53125 16.601562 21.351562 16.359375 C 23.691406 15.671875 25.199219 13.699219 25.199219 11.351562 C 25.199219 9.03125 23.691406 7.03125 21.421875 6.359375 C 20.769531 6.171875 19.421875 6.089844 18.738281 6.191406 Z M 20.601562 8.261719 C 21.328125 8.46875 21.910156 8.890625 22.289062 9.46875 C 22.679688 10.050781 22.808594 10.539062 22.808594 11.351562 C 22.808594 12.160156 22.679688 12.648438 22.289062 13.230469 C 21.230469 14.828125 18.628906 15.039062 17.390625 13.628906 C 16.820312 12.96875 16.558594 12.261719 16.558594 11.351562 C 16.558594 10.488281 16.761719 9.890625 17.261719 9.230469 C 17.980469 8.289062 19.359375 7.890625 20.601562 8.261719 Z M 20.601562 8.261719 "/>
<path style=" stroke:none;fill-rule:nonzero;fill:rgb(0%,0%,0%);fill-opacity:1;" d="M 107.941406 6.191406 C 106.261719 6.460938 105.210938 7.21875 104.839844 8.460938 C 104.441406 9.789062 104.988281 11.050781 106.230469 11.640625 C 106.519531 11.769531 107.449219 12.070312 108.300781 12.300781 C 109.148438 12.519531 109.949219 12.78125 110.070312 12.859375 C 110.921875 13.410156 110.628906 14.351562 109.539062 14.601562 C 108.539062 14.839844 106.980469 14.570312 105.921875 14 C 105.609375 13.828125 105.328125 13.730469 105.289062 13.769531 C 105.238281 13.820312 105.050781 14.199219 104.859375 14.628906 L 104.5 15.398438 L 104.878906 15.640625 C 105.789062 16.238281 107.851562 16.671875 109.199219 16.550781 C 111.609375 16.320312 113.039062 15.019531 112.871094 13.191406 C 112.78125 12.160156 112.199219 11.421875 111.160156 11.011719 C 110.878906 10.890625 110.039062 10.640625 109.300781 10.449219 C 108.558594 10.25 107.789062 10.011719 107.601562 9.921875 C 106.839844 9.550781 106.859375 8.671875 107.648438 8.261719 C 107.980469 8.089844 108.230469 8.050781 109 8.050781 C 109.960938 8.058594 110.601562 8.199219 111.398438 8.601562 L 111.75 8.78125 L 112.121094 7.890625 L 112.480469 7.011719 L 111.949219 6.75 C 110.921875 6.269531 109.078125 6.011719 107.941406 6.191406 Z M 107.941406 6.191406 "/>
<path style=" stroke:none;fill-rule:nonzero;fill:rgb(0%,0%,0%);fill-opacity:1;" d="M 126.339844 6.191406 C 125.109375 6.390625 124.171875 6.839844 123.328125 7.628906 C 122.238281 8.660156 121.769531 9.769531 121.769531 11.351562 C 121.769531 12.96875 122.25 14.070312 123.410156 15.140625 C 124.460938 16.109375 125.691406 16.550781 127.351562 16.539062 C 128.738281 16.53125 130.078125 16.140625 131.03125 15.480469 L 131.300781 15.289062 L 131.300781 11.199219 L 129.199219 11.199219 L 129.199219 14.179688 L 128.730469 14.339844 C 127.28125 14.839844 125.699219 14.488281 124.851562 13.480469 C 124.328125 12.871094 124.160156 12.339844 124.148438 11.351562 C 124.148438 10.558594 124.179688 10.378906 124.429688 9.878906 C 124.988281 8.75 126 8.160156 127.398438 8.148438 C 128.269531 8.148438 128.890625 8.351562 129.558594 8.859375 L 130.011719 9.210938 L 130.28125 9.011719 C 130.429688 8.898438 130.769531 8.589844 131.03125 8.320312 L 131.511719 7.828125 L 131.039062 7.421875 C 129.929688 6.441406 127.988281 5.929688 126.339844 6.191406 Z M 126.339844 6.191406 "/>
<path style=" stroke:none;fill-rule:nonzero;fill:rgb(0%,0%,0%);fill-opacity:1;" d="M 213.800781 6.199219 C 211.609375 6.550781 210.320312 8.078125 210.699219 9.878906 C 210.941406 10.960938 211.691406 11.570312 213.378906 12.050781 C 215.648438 12.691406 215.96875 12.800781 216.230469 13.058594 C 216.761719 13.589844 216.410156 14.351562 215.539062 14.589844 C 214.429688 14.898438 212.980469 14.609375 211.28125 13.71875 C 211.199219 13.679688 210.5 15.160156 210.5 15.359375 C 210.5 15.550781 211.589844 16.078125 212.488281 16.320312 C 213.601562 16.621094 215.398438 16.621094 216.351562 16.328125 C 217.261719 16.039062 217.898438 15.628906 218.269531 15.078125 C 218.671875 14.488281 218.800781 14.078125 218.800781 13.359375 C 218.800781 12.609375 218.558594 12.058594 218.058594 11.621094 C 217.5 11.128906 217.019531 10.921875 215.421875 10.5 C 214.609375 10.289062 213.828125 10.070312 213.679688 10.011719 C 213.230469 9.839844 213 9.539062 213 9.121094 C 213 7.921875 215.148438 7.621094 217.171875 8.550781 L 217.691406 8.78125 L 217.851562 8.371094 C 217.949219 8.140625 218.109375 7.738281 218.210938 7.480469 L 218.398438 7 L 218.011719 6.800781 C 217 6.289062 215.019531 6 213.800781 6.199219 Z M 213.800781 6.199219 "/>
<path style=" stroke:none;fill-rule:nonzero;fill:rgb(0%,0%,0%);fill-opacity:1;" d="M 27 11.351562 L 27 16.398438 L 29.199219 16.398438 L 29.21875 13.5 L 29.25 10.609375 L 32.070312 15.25 L 32.628906 15.28125 L 33.191406 15.308594 L 34.621094 12.898438 C 35.410156 11.578125 36.078125 10.5 36.121094 10.5 C 36.171875 10.5 36.199219 11.828125 36.199219 13.449219 L 36.199219 16.398438 L 38.429688 16.398438 L 38.371094 14.730469 C 38.328125 13.820312 38.300781 11.539062 38.300781 9.679688 L 38.300781 6.289062 L 36.378906 6.351562 L 34.558594 9.421875 C 33.570312 11.109375 32.71875 12.480469 32.671875 12.46875 C 32.628906 12.460938 31.78125 11.078125 30.769531 9.398438 L 28.941406 6.351562 L 27.96875 6.320312 L 27 6.289062 Z M 27 11.351562 "/>
<path style=" stroke:none;fill-rule:nonzero;fill:rgb(0%,0%,0%);fill-opacity:1;" d="M 40.800781 11.351562 L 40.800781 16.398438 L 43.101562 16.398438 L 43.101562 13.601562 L 44.53125 13.601562 C 46.621094 13.601562 47.679688 13.289062 48.53125 12.429688 C 49.179688 11.789062 49.429688 11.191406 49.480469 10.148438 C 49.511719 9.390625 49.480469 9.148438 49.289062 8.648438 C 48.980469 7.828125 48.171875 7.019531 47.351562 6.710938 C 46.390625 6.351562 45.898438 6.300781 43.289062 6.300781 L 40.800781 6.300781 Z M 45.96875 8.351562 C 47.578125 8.828125 47.550781 11.140625 45.929688 11.589844 C 45.71875 11.648438 45 11.699219 44.328125 11.699219 L 43.101562 11.699219 L 43.101562 8.199219 L 44.28125 8.199219 C 45.050781 8.199219 45.640625 8.25 45.96875 8.351562 Z M 45.96875 8.351562 "/>
<path style=" stroke:none;fill-rule:nonzero;fill:rgb(0%,0%,0%);fill-opacity:1;" d="M 51.300781 11.351562 L 51.300781 16.398438 L 53.699219 16.398438 L 53.699219 13.601562 L 54.78125 13.601562 L 55.851562 13.609375 L 56.800781 15 L 57.75 16.398438 L 58.980469 16.398438 C 59.648438 16.398438 60.199219 16.378906 60.199219 16.351562 C 60.199219 16.320312 59.710938 15.589844 59.101562 14.730469 L 58 13.171875 L 58.488281 12.890625 C 59.078125 12.550781 59.449219 12.128906 59.789062 11.398438 C 60.011719 10.929688 60.050781 10.710938 60.039062 9.949219 C 60.039062 9.199219 60 8.960938 59.78125 8.488281 C 59.460938 7.800781 58.878906 7.191406 58.191406 6.851562 C 57.300781 6.390625 56.589844 6.300781 53.828125 6.300781 L 51.300781 6.300781 Z M 56.871094 8.480469 C 57.980469 9.058594 57.980469 10.871094 56.871094 11.46875 C 56.621094 11.609375 56.230469 11.648438 55.128906 11.679688 L 53.699219 11.71875 L 53.699219 8.179688 L 55.078125 8.21875 C 56.261719 8.25 56.511719 8.289062 56.871094 8.480469 Z M 56.871094 8.480469 "/>
<path style=" stroke:none;fill-rule:nonzero;fill:rgb(0%,0%,0%);fill-opacity:1;" d="M 61.898438 11.351562 L 61.898438 16.398438 L 69.800781 16.398438 L 69.800781 14.5 L 64.300781 14.5 L 64.300781 12.199219 L 69 12.199219 L 69 10.398438 L 64.300781 10.398438 L 64.300781 8.199219 L 69.601562 8.199219 L 69.601562 6.300781 L 61.898438 6.300781 Z M 61.898438 11.351562 "/>
<path style=" stroke:none;fill-rule:nonzero;fill:rgb(0%,0%,0%);fill-opacity:1;" d="M 75.699219 11.351562 L 75.699219 16.398438 L 77.898438 16.398438 L 77.921875 13.460938 L 77.949219 10.519531 L 79.398438 12.910156 L 80.851562 15.300781 L 81.949219 15.300781 L 83.421875 12.820312 L 84.898438 10.351562 L 84.898438 16.398438 L 87.101562 16.398438 L 87.101562 6.300781 L 85.148438 6.300781 L 83.351562 9.351562 C 82.359375 11.019531 81.511719 12.398438 81.460938 12.421875 C 81.410156 12.441406 80.53125 11.070312 79.511719 9.371094 L 77.648438 6.300781 L 75.699219 6.300781 Z M 75.699219 11.351562 "/>
<path style=" stroke:none;fill-rule:nonzero;fill:rgb(0%,0%,0%);fill-opacity:1;" d="M 90.449219 11.261719 C 89.238281 13.988281 88.238281 16.261719 88.21875 16.308594 C 88.199219 16.359375 88.710938 16.398438 89.378906 16.398438 L 90.570312 16.398438 L 91.011719 15.320312 L 91.449219 14.25 L 96.148438 14.25 L 96.601562 15.320312 L 97.050781 16.398438 L 98.28125 16.398438 C 98.960938 16.398438 99.488281 16.371094 99.46875 16.320312 C 99.441406 16.28125 98.5 14.179688 97.371094 11.648438 C 96.238281 9.109375 95.238281 6.878906 95.140625 6.671875 L 94.960938 6.300781 L 93.808594 6.300781 L 92.648438 6.308594 Z M 94.589844 10.46875 C 95 11.449219 95.351562 12.308594 95.371094 12.371094 C 95.410156 12.46875 95.070312 12.5 93.859375 12.5 C 92.679688 12.5 92.300781 12.46875 92.300781 12.371094 C 92.300781 12.199219 93.738281 8.699219 93.808594 8.699219 C 93.839844 8.699219 94.191406 9.5 94.589844 10.46875 Z M 94.589844 10.46875 "/>
<path style=" stroke:none;fill-rule:nonzero;fill:rgb(0%,0%,0%);fill-opacity:1;" d="M 100.5 11.351562 L 100.5 16.398438 L 102.898438 16.398438 L 102.898438 6.300781 L 100.5 6.300781 Z M 100.5 11.351562 "/>
<path style=" stroke:none;fill-rule:nonzero;fill:rgb(0%,0%,0%);fill-opacity:1;" d="M 134.449219 11.261719 C 133.238281 13.988281 132.238281 16.261719 132.21875 16.308594 C 132.199219 16.359375 132.710938 16.398438 133.378906 16.398438 L 134.570312 16.398438 L 135.011719 15.320312 L 135.449219 14.25 L 140.148438 14.25 L 140.601562 15.320312 L 141.050781 16.398438 L 142.28125 16.398438 C 142.960938 16.398438 143.488281 16.371094 143.46875 16.320312 C 143.441406 16.28125 142.5 14.179688 141.371094 11.648438 C 140.238281 9.109375 139.238281 6.878906 139.140625 6.671875 L 138.960938 6.300781 L 137.808594 6.300781 L 136.648438 6.308594 Z M 138.589844 10.46875 C 139 11.449219 139.351562 12.308594 139.371094 12.371094 C 139.410156 12.46875 139.070312 12.5 137.859375 12.5 C 136.679688 12.5 136.300781 12.46875 136.300781 12.371094 C 136.300781 12.199219 137.738281 8.699219 137.808594 8.699219 C 137.839844 8.699219 138.191406 9.5 138.589844 10.46875 Z M 138.589844 10.46875 "/>
<path style=" stroke:none;fill-rule:nonzero;fill:rgb(0%,0%,0%);fill-opacity:1;" d="M 144.5 11.351562 L 144.5 16.398438 L 146.898438 16.398438 L 146.921875 13.390625 L 146.949219 10.378906 L 149.398438 13.371094 L 151.851562 16.351562 L 152.828125 16.378906 L 153.800781 16.410156 L 153.800781 6.300781 L 151.5 6.300781 L 151.480469 9.328125 L 151.449219 12.359375 L 148.96875 9.328125 L 146.480469 6.300781 L 144.5 6.300781 Z M 144.5 11.351562 "/>
<path style=" stroke:none;fill-rule:nonzero;fill:rgb(0%,0%,0%);fill-opacity:1;" d="M 156.199219 11.351562 L 156.199219 16.398438 L 158.601562 16.398438 L 158.601562 12.300781 L 163.101562 12.300781 L 163.101562 16.398438 L 165.5 16.398438 L 165.5 6.300781 L 163.101562 6.300781 L 163.101562 10.300781 L 158.601562 10.300781 L 158.601562 6.300781 L 156.199219 6.300781 Z M 156.199219 11.351562 "/>
<path style=" stroke:none;fill-rule:nonzero;fill:rgb(0%,0%,0%);fill-opacity:1;" d="M 167.898438 11.351562 L 167.898438 16.398438 L 175.699219 16.398438 L 175.699219 14.5 L 170.199219 14.5 L 170.199219 12.199219 L 174.898438 12.199219 L 174.898438 10.398438 L 170.199219 10.398438 L 170.199219 8.199219 L 175.5 8.199219 L 175.5 6.300781 L 167.898438 6.300781 Z M 167.898438 11.351562 "/>
<path style=" stroke:none;fill-rule:nonzero;fill:rgb(0%,0%,0%);fill-opacity:1;" d="M 181.601562 11.351562 L 181.601562 16.398438 L 183.800781 16.398438 L 183.800781 13.5 C 183.800781 11.898438 183.828125 10.601562 183.878906 10.601562 C 183.921875 10.609375 184.578125 11.660156 185.351562 12.949219 L 186.75 15.289062 L 187.308594 15.300781 L 187.878906 15.300781 L 189.308594 12.878906 L 190.75 10.449219 L 190.78125 13.429688 L 190.800781 16.398438 L 193 16.398438 L 193 6.289062 L 192.03125 6.320312 L 191.058594 6.351562 L 189.28125 9.339844 C 188.308594 10.988281 187.46875 12.371094 187.410156 12.429688 C 187.359375 12.480469 186.609375 11.328125 185.460938 9.410156 L 183.589844 6.300781 L 181.601562 6.300781 Z M 181.601562 11.351562 "/>
<path style=" stroke:none;fill-rule:nonzero;fill:rgb(0%,0%,0%);fill-opacity:1;" d="M 198.570312 6.421875 C 198.539062 6.488281 197.53125 8.769531 196.320312 11.480469 L 194.109375 16.410156 L 195.320312 16.378906 L 196.53125 16.351562 L 196.980469 15.269531 L 197.429688 14.199219 L 202.078125 14.199219 L 202.53125 15.269531 L 202.980469 16.351562 L 204.199219 16.378906 C 205.339844 16.398438 205.421875 16.390625 205.359375 16.230469 C 205.320312 16.128906 204.308594 13.859375 203.121094 11.179688 L 200.949219 6.308594 L 199.789062 6.300781 C 198.949219 6.300781 198.609375 6.328125 198.570312 6.421875 Z M 200.589844 10.578125 C 200.980469 11.53125 201.300781 12.351562 201.300781 12.398438 C 201.300781 12.460938 200.679688 12.5 199.75 12.5 C 198.898438 12.5 198.199219 12.46875 198.199219 12.421875 C 198.199219 12.378906 198.398438 11.871094 198.640625 11.300781 C 198.878906 10.71875 199.21875 9.898438 199.398438 9.46875 C 199.578125 9.039062 199.761719 8.71875 199.800781 8.769531 C 199.839844 8.808594 200.199219 9.628906 200.589844 10.578125 Z M 200.589844 10.578125 "/>
<path style=" stroke:none;fill-rule:nonzero;fill:rgb(0%,0%,0%);fill-opacity:1;" d="M 206.5 11.351562 L 206.5 16.398438 L 208.800781 16.398438 L 208.800781 6.300781 L 206.5 6.300781 Z M 206.5 11.351562 "/>
<path style=" stroke:none;fill-rule:nonzero;fill:rgb(0%,0%,0%);fill-opacity:1;" d="M 220.03125 6.871094 C 220.070312 7.191406 220.171875 8.679688 220.269531 10.171875 L 220.441406 12.898438 L 221.320312 12.898438 C 222.148438 12.898438 222.199219 12.890625 222.238281 12.671875 C 222.269531 12.550781 222.359375 11.28125 222.449219 9.851562 C 222.53125 8.421875 222.628906 7.039062 222.660156 6.769531 L 222.71875 6.300781 L 219.96875 6.300781 Z M 220.03125 6.871094 "/>
<path style=" stroke:none;fill-rule:nonzero;fill:rgb(0%,0%,0%);fill-opacity:1;" d="M 114.601562 13.871094 C 113.679688 14.351562 113.539062 15.539062 114.339844 16.171875 L 114.578125 16.359375 L 114.289062 17.398438 C 114.128906 17.96875 114 18.46875 114 18.519531 C 114 18.558594 114.308594 18.601562 114.691406 18.601562 L 115.378906 18.601562 L 115.949219 17.179688 C 116.261719 16.398438 116.539062 15.558594 116.558594 15.308594 C 116.679688 14.191406 115.558594 13.371094 114.601562 13.871094 Z M 114.601562 13.871094 "/>
<path style=" stroke:none;fill-rule:nonzero;fill:rgb(0%,0%,0%);fill-opacity:1;" d="M 220.738281 14.039062 C 219.75 14.46875 219.730469 15.851562 220.699219 16.351562 C 221.328125 16.671875 222.148438 16.460938 222.5 15.871094 C 223.179688 14.75 221.980469 13.5 220.738281 14.039062 Z M 220.738281 14.039062 "/>
<path style=" stroke:none;fill-rule:nonzero;fill:rgb(0%,0%,0%);fill-opacity:1;" d="M 5.898438 35.96875 C 5.089844 36.101562 3.960938 36.648438 3.511719 37.140625 C 3.269531 37.390625 3.269531 37.398438 3.460938 37.609375 C 3.558594 37.730469 3.769531 37.910156 3.921875 38.019531 L 4.199219 38.210938 L 4.578125 37.898438 C 5.441406 37.210938 7.039062 36.96875 7.949219 37.390625 C 8.621094 37.699219 8.828125 38.011719 8.878906 38.730469 C 8.949219 39.878906 8.828125 40.050781 5.28125 43.480469 L 3.601562 45.101562 L 3.601562 46.101562 L 10.800781 46.101562 L 10.800781 44.800781 L 5.71875 44.800781 L 7.75 42.769531 C 8.929688 41.589844 9.859375 40.578125 9.980469 40.339844 C 10.089844 40.121094 10.238281 39.671875 10.308594 39.328125 C 10.628906 37.769531 9.800781 36.46875 8.191406 36.050781 C 7.691406 35.910156 6.5 35.871094 5.898438 35.96875 Z M 5.898438 35.96875 "/>
<path style=" stroke:none;fill-rule:nonzero;fill:rgb(0%,0%,0%);fill-opacity:1;" d="M 20.199219 35.96875 C 18.609375 36.238281 17.148438 37.300781 16.460938 38.71875 C 15.050781 41.578125 16.390625 44.871094 19.378906 45.910156 C 20.121094 46.171875 21.589844 46.269531 22.421875 46.109375 C 23.421875 45.910156 24.460938 45.359375 25.148438 44.660156 C 26.171875 43.628906 26.601562 42.550781 26.601562 41.050781 C 26.601562 39.550781 26.171875 38.46875 25.148438 37.441406 C 24.488281 36.769531 23.441406 36.199219 22.519531 36.011719 C 22.011719 35.898438 20.71875 35.878906 20.199219 35.96875 Z M 23.03125 37.578125 C 23.851562 37.988281 24.601562 38.78125 24.910156 39.578125 C 25.230469 40.378906 25.230469 41.71875 24.910156 42.519531 C 24.601562 43.320312 23.851562 44.109375 23.019531 44.519531 C 22.390625 44.828125 22.300781 44.851562 21.25 44.851562 C 20.199219 44.851562 20.109375 44.828125 19.480469 44.519531 C 16.390625 43 16.738281 38.410156 20.03125 37.339844 C 20.300781 37.25 20.800781 37.210938 21.410156 37.230469 C 22.261719 37.25 22.441406 37.289062 23.03125 37.578125 Z M 23.03125 37.578125 "/>
<path style=" stroke:none;fill-rule:nonzero;fill:rgb(0%,0%,0%);fill-opacity:1;" d="M 74.75 36.039062 C 73.261719 36.421875 72.441406 37.261719 72.328125 38.5 C 72.179688 40.109375 72.96875 40.921875 75.300781 41.550781 C 77.398438 42.128906 77.609375 42.210938 77.980469 42.550781 C 78.320312 42.859375 78.351562 42.929688 78.351562 43.441406 C 78.351562 43.910156 78.308594 44.03125 78.058594 44.289062 C 77.589844 44.78125 77 44.949219 75.851562 44.941406 C 74.71875 44.929688 73.898438 44.710938 73.070312 44.179688 C 72.808594 44.011719 72.578125 43.890625 72.558594 43.910156 C 72.398438 44.078125 72.101562 44.851562 72.140625 44.960938 C 72.21875 45.179688 72.941406 45.578125 73.769531 45.871094 C 74.46875 46.109375 74.691406 46.140625 75.898438 46.140625 C 77.058594 46.140625 77.328125 46.109375 77.808594 45.921875 C 79.070312 45.421875 79.679688 44.679688 79.78125 43.550781 C 79.851562 42.671875 79.640625 42.140625 78.980469 41.550781 C 78.460938 41.078125 78.050781 40.921875 75.601562 40.25 C 74.210938 39.871094 73.699219 39.441406 73.699219 38.671875 C 73.699219 37.21875 76.210938 36.628906 78.289062 37.601562 C 78.640625 37.769531 78.941406 37.890625 78.949219 37.878906 C 79.011719 37.769531 79.398438 36.761719 79.378906 36.75 C 79.191406 36.589844 78.320312 36.25 77.730469 36.089844 C 76.851562 35.871094 75.519531 35.851562 74.75 36.039062 Z M 74.75 36.039062 "/>
<path style=" stroke:none;fill-rule:nonzero;fill:rgb(0%,0%,0%);fill-opacity:1;" d="M 108.960938 36.058594 C 107.679688 36.371094 106.28125 37.429688 105.679688 38.558594 C 104.898438 40.011719 104.898438 42.089844 105.679688 43.539062 C 106.300781 44.710938 107.660156 45.730469 109.011719 46.039062 C 109.351562 46.121094 109.640625 46.210938 109.671875 46.230469 C 109.691406 46.261719 109.648438 46.53125 109.570312 46.839844 L 109.421875 47.398438 L 109.789062 47.398438 C 110.320312 47.398438 110.621094 47.640625 110.578125 48.03125 C 110.539062 48.480469 110.03125 48.648438 109.308594 48.460938 C 108.828125 48.339844 108.808594 48.339844 108.710938 48.570312 C 108.539062 48.949219 108.578125 49.070312 108.910156 49.191406 C 109.441406 49.371094 110.378906 49.328125 110.871094 49.089844 C 111.410156 48.828125 111.640625 48.421875 111.570312 47.859375 C 111.511719 47.410156 111.050781 46.898438 110.699219 46.898438 C 110.449219 46.898438 110.371094 46.75 110.441406 46.441406 C 110.488281 46.25 110.570312 46.199219 110.828125 46.199219 C 111.800781 46.191406 113.28125 45.589844 113.910156 44.941406 L 114.238281 44.601562 L 113.828125 44.179688 C 113.378906 43.730469 113.378906 43.730469 112.660156 44.25 C 111.96875 44.75 111.261719 44.929688 110.210938 44.878906 C 109.160156 44.828125 108.441406 44.53125 107.71875 43.859375 C 107.089844 43.269531 106.730469 42.601562 106.578125 41.71875 C 106.28125 39.949219 107.148438 38.28125 108.78125 37.519531 C 109.28125 37.28125 109.46875 37.25 110.398438 37.25 C 111.601562 37.25 112.128906 37.398438 112.859375 37.960938 L 113.308594 38.308594 L 113.75 37.941406 C 114 37.738281 114.199219 37.519531 114.199219 37.449219 C 114.199219 37.289062 113.539062 36.78125 112.921875 36.460938 C 111.851562 35.921875 110.21875 35.75 108.960938 36.058594 Z M 108.960938 36.058594 "/>
<path style=" stroke:none;fill-rule:nonzero;fill:rgb(0%,0%,0%);fill-opacity:1;" d="M 128.628906 36.050781 C 127.859375 36.261719 127.390625 36.53125 126.929688 37.019531 C 126.441406 37.570312 126.261719 38.058594 126.269531 38.859375 C 126.28125 39.621094 126.488281 40.089844 127.070312 40.601562 C 127.601562 41.058594 128.101562 41.261719 129.800781 41.699219 C 131.828125 42.230469 132.320312 42.558594 132.320312 43.441406 C 132.320312 44.03125 132.011719 44.460938 131.410156 44.730469 C 131.039062 44.898438 130.75 44.949219 129.949219 44.949219 C 128.800781 44.949219 127.871094 44.710938 127.070312 44.199219 C 126.808594 44.039062 126.570312 43.898438 126.550781 43.898438 C 126.519531 43.898438 126.378906 44.128906 126.238281 44.421875 L 125.980469 44.941406 L 126.210938 45.128906 C 126.589844 45.441406 127.589844 45.859375 128.371094 46.039062 C 129.679688 46.328125 131.328125 46.191406 132.28125 45.710938 C 132.789062 45.449219 133.441406 44.730469 133.609375 44.238281 C 133.808594 43.648438 133.769531 42.730469 133.519531 42.238281 C 133.089844 41.390625 132.359375 41 130.261719 40.449219 C 128.160156 39.898438 127.699219 39.601562 127.699219 38.71875 C 127.699219 37.800781 128.390625 37.238281 129.679688 37.128906 C 130.5 37.058594 131.640625 37.28125 132.371094 37.660156 C 132.628906 37.789062 132.859375 37.898438 132.859375 37.898438 C 132.898438 37.898438 133.300781 36.898438 133.300781 36.808594 C 133.300781 36.648438 132.238281 36.199219 131.519531 36.039062 C 130.671875 35.871094 129.308594 35.871094 128.628906 36.050781 Z M 128.628906 36.050781 "/>
<path style=" stroke:none;fill-rule:nonzero;fill:rgb(0%,0%,0%);fill-opacity:1;" d="M 153.398438 35.96875 C 152.589844 36.101562 151.460938 36.648438 151.011719 37.140625 C 150.769531 37.390625 150.769531 37.398438 150.960938 37.609375 C 151.058594 37.730469 151.269531 37.910156 151.421875 38.019531 L 151.699219 38.210938 L 152.078125 37.898438 C 152.941406 37.210938 154.539062 36.96875 155.449219 37.390625 C 156.121094 37.699219 156.328125 38.011719 156.378906 38.730469 C 156.449219 39.878906 156.328125 40.050781 152.78125 43.480469 L 151.101562 45.101562 L 151.101562 46.101562 L 158.300781 46.101562 L 158.300781 44.800781 L 153.21875 44.800781 L 155.25 42.769531 C 156.429688 41.589844 157.359375 40.578125 157.480469 40.339844 C 157.589844 40.121094 157.738281 39.671875 157.808594 39.328125 C 158.128906 37.769531 157.300781 36.46875 155.691406 36.050781 C 155.191406 35.910156 154 35.871094 153.398438 35.96875 Z M 153.398438 35.96875 "/>
<path style=" stroke:none;fill-rule:nonzero;fill:rgb(0%,0%,0%);fill-opacity:1;" d="M 169.269531 36.03125 C 168.699219 36.210938 168.25 36.628906 167.941406 37.261719 C 167.699219 37.75 167.660156 37.960938 167.660156 38.640625 C 167.671875 40.320312 168.578125 41.398438 170 41.398438 C 171.488281 41.398438 172.378906 40.21875 172.28125 38.398438 C 172.21875 37.410156 171.851562 36.691406 171.179688 36.269531 C 170.648438 35.941406 169.851562 35.839844 169.269531 36.03125 Z M 170.699219 36.988281 C 171.179688 37.339844 171.351562 37.78125 171.351562 38.648438 C 171.351562 39.910156 170.871094 40.601562 170 40.601562 C 169.171875 40.601562 168.609375 39.851562 168.601562 38.75 C 168.601562 37.949219 168.75 37.46875 169.101562 37.109375 C 169.550781 36.660156 170.191406 36.609375 170.699219 36.988281 Z M 170.699219 36.988281 "/>
<path style=" stroke:none;fill-rule:nonzero;fill:rgb(0%,0%,0%);fill-opacity:1;" d="M 233.628906 36.011719 C 232.070312 36.308594 231.101562 37.390625 231.101562 38.800781 C 231.101562 39.601562 231.328125 40.128906 231.851562 40.589844 C 232.359375 41.03125 232.851562 41.230469 234.640625 41.710938 C 235.53125 41.941406 236.308594 42.210938 236.53125 42.359375 C 237.238281 42.820312 237.371094 43.660156 236.839844 44.289062 C 236.058594 45.230469 233.398438 45.179688 231.859375 44.199219 C 231.589844 44.03125 231.339844 43.921875 231.300781 43.96875 C 231.261719 44.011719 231.128906 44.261719 231.019531 44.519531 L 230.820312 44.988281 L 231.308594 45.308594 C 232.398438 46.011719 234.460938 46.371094 235.851562 46.109375 C 236.78125 45.941406 237.648438 45.46875 238.050781 44.921875 C 238.800781 43.878906 238.78125 42.609375 237.988281 41.75 C 237.488281 41.210938 236.761719 40.878906 235.03125 40.441406 C 232.949219 39.898438 232.421875 39.5 232.53125 38.53125 C 232.628906 37.621094 233.460938 37.148438 234.949219 37.148438 C 235.859375 37.160156 236.519531 37.308594 237.328125 37.71875 L 237.699219 37.910156 L 237.898438 37.441406 C 238.171875 36.808594 238.160156 36.730469 237.691406 36.5 C 236.691406 35.980469 234.859375 35.761719 233.628906 36.011719 Z M 233.628906 36.011719 "/>
<path style=" stroke:none;fill-rule:nonzero;fill:rgb(0%,0%,0%);fill-opacity:1;" d="M 243.761719 36.058594 C 242.480469 36.371094 241.078125 37.429688 240.480469 38.558594 C 239.910156 39.621094 239.730469 41.21875 240.050781 42.449219 C 240.511719 44.199219 242 45.621094 243.820312 46.050781 C 245.578125 46.460938 247.699219 45.980469 248.710938 44.941406 L 249.039062 44.601562 L 248.628906 44.179688 C 248.179688 43.730469 248.179688 43.730469 247.460938 44.25 C 246.769531 44.75 246.058594 44.929688 245.011719 44.878906 C 243.960938 44.828125 243.238281 44.53125 242.519531 43.859375 C 241.890625 43.269531 241.53125 42.601562 241.378906 41.71875 C 241.078125 39.949219 241.949219 38.28125 243.578125 37.519531 C 244.078125 37.28125 244.269531 37.25 245.199219 37.25 C 246.398438 37.25 246.929688 37.398438 247.660156 37.960938 L 248.109375 38.308594 L 248.550781 37.941406 C 248.800781 37.738281 249 37.519531 249 37.449219 C 249 37.289062 248.339844 36.78125 247.71875 36.460938 C 246.648438 35.921875 245.019531 35.75 243.761719 36.058594 Z M 243.761719 36.058594 "/>
<path style=" stroke:none;fill-rule:nonzero;fill:rgb(0%,0%,0%);fill-opacity:1;" d="M 254.28125 36.058594 C 252.589844 36.46875 251.179688 37.730469 250.589844 39.359375 C 250.421875 39.828125 250.371094 40.179688 250.371094 41.050781 C 250.371094 41.921875 250.421875 42.269531 250.589844 42.738281 C 251.351562 44.859375 253.328125 46.199219 255.699219 46.199219 C 258.21875 46.199219 260.328125 44.628906 260.890625 42.359375 C 261.039062 41.738281 261.039062 40.371094 260.890625 39.738281 C 260.460938 37.960938 258.941406 36.488281 257.078125 36.050781 C 256.300781 35.871094 255.039062 35.871094 254.28125 36.058594 Z M 257.039062 37.398438 C 258.078125 37.75 258.78125 38.398438 259.28125 39.480469 C 259.519531 39.980469 259.550781 40.171875 259.550781 41.050781 C 259.550781 41.960938 259.519531 42.109375 259.238281 42.699219 C 258.859375 43.5 258.191406 44.191406 257.421875 44.570312 C 256.898438 44.828125 256.761719 44.851562 255.699219 44.851562 C 254.628906 44.851562 254.511719 44.828125 253.949219 44.558594 C 253.191406 44.179688 252.460938 43.460938 252.121094 42.71875 C 251.878906 42.210938 251.851562 42.03125 251.851562 41.050781 C 251.851562 40.121094 251.890625 39.871094 252.070312 39.46875 C 252.53125 38.46875 253.300781 37.761719 254.328125 37.390625 C 255.050781 37.140625 256.289062 37.140625 257.039062 37.398438 Z M 257.039062 37.398438 "/>
<path style=" stroke:none;fill-rule:nonzero;fill:rgb(0%,0%,0%);fill-opacity:1;" d="M 286.578125 36.050781 C 284.730469 36.519531 283.21875 38.011719 282.800781 39.800781 C 282.128906 42.640625 283.828125 45.390625 286.671875 46.058594 C 287.648438 46.289062 289.128906 46.199219 290.050781 45.859375 C 291.371094 45.359375 292.550781 44.238281 293 43.039062 C 293.851562 40.75 293.210938 38.371094 291.378906 36.980469 C 290.441406 36.269531 289.589844 35.988281 288.25 35.941406 C 287.5 35.921875 286.96875 35.949219 286.578125 36.050781 Z M 289.75 37.550781 C 290.511719 37.921875 291.179688 38.589844 291.558594 39.351562 C 291.828125 39.898438 291.851562 40.039062 291.851562 41.050781 C 291.851562 42.058594 291.828125 42.199219 291.558594 42.75 C 291.179688 43.511719 290.511719 44.179688 289.761719 44.550781 C 288.570312 45.128906 286.828125 44.988281 285.710938 44.210938 C 283.398438 42.621094 283.621094 38.941406 286.101562 37.648438 C 286.789062 37.289062 287.230469 37.199219 288.199219 37.230469 C 289.019531 37.25 289.238281 37.300781 289.75 37.550781 Z M 289.75 37.550781 "/>
<path style=" stroke:none;fill-rule:nonzero;fill:rgb(0%,0%,0%);fill-opacity:1;" d="M 28.820312 39.621094 C 28.851562 43.199219 28.859375 43.261719 29.101562 43.851562 C 29.449219 44.710938 30.339844 45.578125 31.199219 45.910156 C 31.75 46.109375 32.019531 46.148438 33 46.148438 C 34.289062 46.148438 34.710938 46.050781 35.5 45.578125 C 36.148438 45.179688 36.71875 44.46875 37.019531 43.648438 C 37.21875 43.078125 37.238281 42.851562 37.28125 39.519531 L 37.320312 36 L 35.910156 36 L 35.878906 39.421875 C 35.851562 42.761719 35.839844 42.859375 35.621094 43.351562 C 35.339844 43.949219 34.980469 44.351562 34.449219 44.628906 C 34.121094 44.808594 33.878906 44.851562 33.050781 44.851562 C 32.171875 44.851562 31.980469 44.820312 31.558594 44.601562 C 31.289062 44.460938 30.949219 44.171875 30.789062 43.949219 C 30.261719 43.210938 30.199219 42.691406 30.199219 39.179688 L 30.199219 36 L 28.789062 36 Z M 28.820312 39.621094 "/>
<path style=" stroke:none;fill-rule:nonzero;fill:rgb(0%,0%,0%);fill-opacity:1;" d="M 44.101562 41.050781 L 44.101562 46.101562 L 45.5 46.101562 L 45.519531 42.46875 L 45.550781 38.851562 L 47.359375 41.851562 C 49.71875 45.769531 49.320312 45.730469 51.371094 42.300781 C 52.199219 40.898438 53.03125 39.519531 53.191406 39.25 L 53.488281 38.75 L 53.5 42.421875 L 53.5 46.101562 L 54.898438 46.101562 L 54.898438 35.988281 L 54.28125 36.019531 L 53.660156 36.050781 L 52.230469 38.5 C 51.441406 39.851562 50.511719 41.429688 50.171875 42.03125 L 49.539062 43.101562 L 47.441406 39.558594 L 45.351562 36.011719 L 44.730469 36 L 44.101562 36 Z M 44.101562 41.050781 "/>
<path style=" stroke:none;fill-rule:nonzero;fill:rgb(0%,0%,0%);fill-opacity:1;" d="M 58.75 40.859375 C 57.539062 43.539062 56.519531 45.808594 56.480469 45.921875 C 56.410156 46.078125 56.46875 46.101562 57.140625 46.101562 L 57.878906 46.101562 L 58.410156 44.851562 L 58.949219 43.601562 L 64.359375 43.601562 L 64.910156 44.851562 L 65.449219 46.101562 L 66.980469 46.101562 L 64.691406 41.070312 L 62.410156 36.050781 L 61.679688 36.019531 L 60.949219 36 Z M 62.851562 40.140625 C 63.371094 41.339844 63.789062 42.339844 63.769531 42.371094 C 63.75 42.390625 62.78125 42.390625 61.621094 42.378906 L 59.519531 42.351562 L 60.578125 39.929688 C 61.550781 37.730469 61.660156 37.53125 61.769531 37.730469 C 61.828125 37.859375 62.320312 38.941406 62.851562 40.140625 Z M 62.851562 40.140625 "/>
<path style=" stroke:none;fill-rule:nonzero;fill:rgb(0%,0%,0%);fill-opacity:1;" d="M 68.5 41.050781 L 68.5 46.101562 L 69.898438 46.101562 L 69.898438 36 L 68.5 36 Z M 68.5 41.050781 "/>
<path style=" stroke:none;fill-rule:nonzero;fill:rgb(0%,0%,0%);fill-opacity:1;" d="M 85.800781 41.039062 L 85.800781 46.101562 L 87.300781 46.101562 L 87.300781 43 L 89.03125 43 C 90.171875 43 90.921875 42.949219 91.261719 42.859375 C 92.480469 42.539062 93.441406 41.730469 93.761719 40.769531 C 93.960938 40.171875 93.988281 39.050781 93.820312 38.441406 C 93.539062 37.46875 92.75 36.691406 91.621094 36.269531 C 91.109375 36.078125 90.789062 36.050781 88.429688 36.019531 L 85.800781 35.980469 Z M 91.359375 37.570312 C 92.191406 38.011719 92.550781 38.710938 92.480469 39.75 C 92.429688 40.601562 92.109375 41.078125 91.328125 41.46875 C 90.769531 41.738281 90.679688 41.75 89.03125 41.78125 L 87.300781 41.820312 L 87.300781 37.28125 L 89.128906 37.320312 C 90.78125 37.351562 90.988281 37.371094 91.359375 37.570312 Z M 91.359375 37.570312 "/>
<path style=" stroke:none;fill-rule:nonzero;fill:rgb(0%,0%,0%);fill-opacity:1;" d="M 96.199219 41.050781 L 96.199219 46.101562 L 103.609375 46.101562 L 103.578125 45.46875 L 103.550781 44.851562 L 100.628906 44.820312 L 97.699219 44.800781 L 97.699219 41.601562 L 102.699219 41.601562 L 102.699219 40.398438 L 97.699219 40.398438 L 97.699219 37.300781 L 100.53125 37.28125 L 103.351562 37.25 L 103.378906 36.621094 L 103.410156 36 L 96.199219 36 Z M 96.199219 41.050781 "/>
<path style=" stroke:none;fill-rule:nonzero;fill:rgb(0%,0%,0%);fill-opacity:1;" d="M 119.320312 36.171875 C 119.261719 36.269531 118.25 38.511719 117.050781 41.148438 C 115.859375 43.789062 114.859375 45.988281 114.828125 46.03125 C 114.800781 46.070312 115.128906 46.101562 115.550781 46.078125 L 116.308594 46.050781 L 116.839844 44.851562 L 117.378906 43.648438 L 122.808594 43.648438 L 123.308594 44.800781 C 123.589844 45.429688 123.851562 45.988281 123.890625 46.03125 C 123.929688 46.070312 124.289062 46.101562 124.679688 46.078125 L 125.378906 46.050781 L 120.839844 36.050781 L 120.121094 36.019531 C 119.519531 36 119.398438 36.019531 119.320312 36.171875 Z M 121.179688 39.929688 C 121.738281 41.210938 122.199219 42.289062 122.199219 42.328125 C 122.199219 42.371094 121.238281 42.398438 120.058594 42.398438 L 117.921875 42.398438 L 118.980469 40 C 119.558594 38.679688 120.058594 37.601562 120.089844 37.601562 C 120.121094 37.601562 120.609375 38.648438 121.179688 39.929688 Z M 121.179688 39.929688 "/>
<path style=" stroke:none;fill-rule:nonzero;fill:rgb(0%,0%,0%);fill-opacity:1;" d="M 160.300781 36.121094 C 160.300781 36.191406 160.191406 37.320312 160.050781 38.640625 C 159.910156 39.949219 159.800781 41.089844 159.800781 41.160156 C 159.800781 41.269531 160.109375 41.300781 161.429688 41.300781 C 164.25 41.300781 165.101562 41.730469 165.101562 43.148438 C 165.101562 44.289062 164.261719 44.898438 162.699219 44.898438 C 161.789062 44.898438 160.871094 44.648438 160.171875 44.210938 L 159.699219 43.898438 L 159.441406 44.308594 C 158.96875 45.058594 158.980469 45.078125 160.050781 45.601562 C 160.949219 46.050781 161.949219 46.230469 163.089844 46.179688 C 164.730469 46.089844 165.71875 45.539062 166.269531 44.421875 C 166.5 43.949219 166.550781 43.71875 166.550781 43.089844 C 166.550781 42.441406 166.5 42.238281 166.25 41.738281 C 165.671875 40.609375 164.648438 40.140625 162.519531 40.03125 L 161.269531 39.96875 L 161.339844 39.160156 C 161.378906 38.710938 161.429688 38.109375 161.46875 37.820312 L 161.53125 37.300781 L 166 37.300781 L 166 36 L 163.148438 36 C 160.941406 36 160.300781 36.03125 160.300781 36.121094 Z M 160.300781 36.121094 "/>
<path style=" stroke:none;fill-rule:nonzero;fill:rgb(0%,0%,0%);fill-opacity:1;" d="M 172.75 40.851562 C 170.941406 43.519531 169.390625 45.789062 169.308594 45.898438 C 169.171875 46.109375 169.179688 46.109375 169.75 46.078125 L 170.320312 46.050781 L 173.710938 41.101562 C 175.570312 38.378906 177.089844 36.121094 177.101562 36.070312 C 177.101562 36.03125 176.859375 36 176.578125 36 L 176.050781 36.011719 Z M 172.75 40.851562 "/>
<path style=" stroke:none;fill-rule:nonzero;fill:rgb(0%,0%,0%);fill-opacity:1;" d="M 184.699219 41.050781 L 184.699219 46.101562 L 187.179688 46.101562 C 189.960938 46.101562 190.640625 46 191.699219 45.480469 C 192.511719 45.089844 193.46875 44.148438 193.828125 43.398438 C 194.128906 42.789062 194.398438 41.671875 194.398438 41.050781 C 194.398438 40.429688 194.128906 39.308594 193.828125 38.699219 C 193.46875 37.949219 192.511719 37.011719 191.699219 36.621094 C 190.640625 36.101562 189.960938 36 187.179688 36 L 184.699219 36 Z M 190.820312 37.671875 C 191.628906 38.050781 192.238281 38.640625 192.589844 39.390625 C 192.820312 39.890625 192.851562 40.070312 192.851562 41.050781 C 192.851562 42.03125 192.820312 42.210938 192.589844 42.710938 C 192.238281 43.460938 191.628906 44.050781 190.820312 44.429688 L 190.148438 44.75 L 188.128906 44.78125 L 186.101562 44.808594 L 186.101562 37.289062 L 188.128906 37.320312 L 190.148438 37.351562 Z M 190.820312 37.671875 "/>
<path style=" stroke:none;fill-rule:nonzero;fill:rgb(0%,0%,0%);fill-opacity:1;" d="M 196.601562 41.050781 L 196.601562 46.101562 L 203.898438 46.101562 L 203.898438 44.800781 L 198 44.800781 L 198 41.601562 L 203.101562 41.601562 L 203.101562 40.398438 L 200.578125 40.378906 L 198.050781 40.351562 L 198.019531 38.820312 L 197.988281 37.300781 L 203.699219 37.300781 L 203.699219 36 L 196.601562 36 Z M 196.601562 41.050781 "/>
<path style=" stroke:none;fill-rule:nonzero;fill:rgb(0%,0%,0%);fill-opacity:1;" d="M 210.101562 41.058594 L 210.101562 46.121094 L 212.929688 46.078125 C 215.660156 46.039062 215.769531 46.03125 216.460938 45.789062 C 217.769531 45.308594 218.730469 44.519531 219.269531 43.449219 C 219.660156 42.710938 219.800781 42.050781 219.800781 41.050781 C 219.800781 40.550781 219.738281 39.921875 219.660156 39.648438 C 219.191406 37.890625 217.730469 36.550781 215.828125 36.148438 C 215.339844 36.039062 214.429688 36 212.628906 36 L 210.101562 36 Z M 216.210938 37.609375 C 217.609375 38.269531 218.398438 39.511719 218.398438 41.050781 C 218.398438 42.589844 217.609375 43.828125 216.210938 44.488281 C 215.671875 44.738281 215.570312 44.75 213.628906 44.78125 L 211.601562 44.820312 L 211.601562 37.28125 L 213.628906 37.320312 C 215.570312 37.351562 215.671875 37.359375 216.210938 37.609375 Z M 216.210938 37.609375 "/>
<path style=" stroke:none;fill-rule:nonzero;fill:rgb(0%,0%,0%);fill-opacity:1;" d="M 222.101562 41.050781 L 222.101562 46.101562 L 229.398438 46.101562 L 229.398438 44.800781 L 223.5 44.800781 L 223.5 41.601562 L 228.601562 41.601562 L 228.601562 40.398438 L 223.5 40.398438 L 223.5 37.300781 L 229.199219 37.300781 L 229.199219 36 L 222.101562 36 Z M 222.101562 41.050781 "/>
<path style=" stroke:none;fill-rule:nonzero;fill:rgb(0%,0%,0%);fill-opacity:1;" d="M 263.300781 41.050781 L 263.300781 46.101562 L 264.699219 46.101562 L 264.71875 42.359375 L 264.75 38.609375 L 267.75 42.351562 L 270.75 46.101562 L 272 46.101562 L 272 36 L 270.5 36 L 270.480469 39.730469 L 270.449219 43.460938 L 264.449219 36 L 263.300781 36 Z M 263.300781 41.050781 "/>
<path style=" stroke:none;fill-rule:nonzero;fill:rgb(0%,0%,0%);fill-opacity:1;" d="M 273.519531 36.621094 L 273.550781 37.25 L 275.28125 37.28125 L 277 37.300781 L 277 46.101562 L 278.398438 46.101562 L 278.398438 37.300781 L 280.128906 37.28125 L 281.851562 37.25 L 281.878906 36.621094 L 281.910156 36 L 273.488281 36 Z M 273.519531 36.621094 "/>
<path style=" stroke:none;fill-rule:nonzero;fill:rgb(0%,0%,0%);fill-opacity:1;" d="M 139.199219 39.351562 L 139.199219 39.898438 L 145.699219 39.898438 L 145.699219 38.800781 L 139.199219 38.800781 Z M 139.199219 39.351562 "/>
<path style=" stroke:none;fill-rule:nonzero;fill:rgb(0%,0%,0%);fill-opacity:1;" d="M 175.441406 40.890625 C 174.910156 41.128906 174.359375 41.789062 174.191406 42.378906 C 173.988281 43.101562 174.039062 44.171875 174.300781 44.78125 C 175.058594 46.539062 177.441406 46.671875 178.339844 44.988281 C 178.71875 44.300781 178.820312 43.101562 178.558594 42.328125 C 178.109375 40.980469 176.691406 40.320312 175.441406 40.890625 Z M 177 41.648438 C 177.488281 41.898438 177.75 42.519531 177.75 43.449219 C 177.75 44.339844 177.578125 44.761719 177.070312 45.140625 C 176.71875 45.398438 176.03125 45.410156 175.648438 45.160156 C 174.871094 44.648438 174.761719 42.660156 175.480469 41.871094 C 175.820312 41.480469 176.5 41.390625 177 41.648438 Z M 177 41.648438 "/>
<path style=" stroke:none;fill-rule:nonzero;fill:rgb(0%,0%,0%);fill-opacity:1;" d="M 139.199219 42.75 L 139.199219 43.300781 L 145.699219 43.300781 L 145.699219 42.199219 L 139.199219 42.199219 Z M 139.199219 42.75 "/>
<path style=" stroke:none;fill-rule:nonzero;fill:rgb(0%,0%,0%);fill-opacity:1;" d="M 21.179688 65.648438 C 19.328125 66.121094 17.820312 67.609375 17.398438 69.398438 C 16.730469 72.238281 18.429688 74.988281 21.269531 75.660156 C 22.25 75.890625 23.730469 75.800781 24.648438 75.460938 C 25.96875 74.960938 27.148438 73.839844 27.601562 72.640625 C 28.449219 70.351562 27.808594 67.96875 25.980469 66.578125 C 25.039062 65.871094 24.191406 65.589844 22.851562 65.539062 C 22.101562 65.519531 21.570312 65.550781 21.179688 65.648438 Z M 24.351562 67.148438 C 25.109375 67.519531 25.78125 68.191406 26.160156 68.949219 C 26.429688 69.5 26.449219 69.640625 26.449219 70.648438 C 26.449219 71.660156 26.429688 71.800781 26.160156 72.351562 C 25.78125 73.109375 25.109375 73.78125 24.359375 74.148438 C 23.171875 74.730469 21.429688 74.589844 20.308594 73.808594 C 18 72.21875 18.21875 68.539062 20.699219 67.25 C 21.390625 66.890625 21.828125 66.800781 22.800781 66.828125 C 23.621094 66.851562 23.839844 66.898438 24.351562 67.148438 Z M 24.351562 67.148438 "/>
<path style=" stroke:none;fill-rule:nonzero;fill:rgb(0%,0%,0%);fill-opacity:1;" d="M 76.230469 65.609375 C 74.671875 65.910156 73.699219 66.988281 73.699219 68.398438 C 73.699219 69.199219 73.929688 69.730469 74.449219 70.191406 C 74.960938 70.628906 75.449219 70.828125 77.238281 71.308594 C 78.128906 71.539062 78.910156 71.808594 79.128906 71.960938 C 79.839844 72.421875 79.96875 73.261719 79.441406 73.890625 C 78.660156 74.828125 76 74.78125 74.460938 73.800781 C 74.191406 73.628906 73.941406 73.519531 73.898438 73.570312 C 73.859375 73.609375 73.730469 73.859375 73.621094 74.121094 L 73.421875 74.589844 L 73.910156 74.910156 C 75 75.609375 77.058594 75.96875 78.449219 75.710938 C 79.378906 75.539062 80.25 75.070312 80.648438 74.519531 C 81.398438 73.480469 81.378906 72.210938 80.589844 71.351562 C 80.089844 70.808594 79.359375 70.480469 77.628906 70.039062 C 75.550781 69.5 75.019531 69.101562 75.128906 68.128906 C 75.230469 67.21875 76.058594 66.75 77.550781 66.75 C 78.460938 66.761719 79.121094 66.910156 79.929688 67.320312 L 80.300781 67.511719 L 80.5 67.039062 C 80.769531 66.410156 80.761719 66.328125 80.289062 66.101562 C 79.289062 65.578125 77.460938 65.359375 76.230469 65.609375 Z M 76.230469 65.609375 "/>
<path style=" stroke:none;fill-rule:nonzero;fill:rgb(0%,0%,0%);fill-opacity:1;" d="M 110.359375 65.660156 C 108.339844 66.148438 106.761719 67.878906 106.511719 69.898438 C 106.160156 72.621094 107.800781 75.03125 110.398438 75.640625 C 110.738281 75.71875 111.039062 75.800781 111.058594 75.820312 C 111.078125 75.839844 111.03125 76.101562 110.949219 76.398438 C 110.871094 76.699219 110.800781 76.960938 110.800781 76.96875 C 110.800781 76.988281 110.929688 77 111.089844 77 C 111.53125 77 111.871094 77.160156 111.949219 77.390625 C 112.160156 78.050781 111.429688 78.308594 110.320312 77.988281 C 110.25 77.96875 110.128906 78.101562 110.050781 78.28125 C 109.898438 78.609375 109.910156 78.609375 110.25 78.761719 C 110.691406 78.941406 111.710938 78.941406 112.128906 78.761719 C 112.660156 78.53125 112.949219 78.148438 112.949219 77.648438 C 112.949219 77.089844 112.660156 76.691406 112.128906 76.519531 C 111.75 76.398438 111.730469 76.371094 111.789062 76.121094 C 111.859375 75.878906 111.929688 75.839844 112.460938 75.78125 C 113.320312 75.671875 114.050781 75.421875 114.691406 75 C 115.21875 74.648438 115.679688 74.230469 115.589844 74.171875 C 115.570312 74.160156 115.359375 73.980469 115.140625 73.769531 L 114.730469 73.378906 L 114.070312 73.828125 C 113.269531 74.378906 112.621094 74.539062 111.53125 74.480469 C 109.421875 74.359375 107.898438 72.75 107.898438 70.648438 C 107.898438 69.101562 108.699219 67.828125 110.101562 67.171875 C 110.621094 66.921875 110.910156 66.851562 111.609375 66.820312 C 112.691406 66.769531 113.351562 66.949219 114.140625 67.5 L 114.730469 67.910156 L 115.160156 67.488281 L 115.601562 67.058594 L 115.289062 66.738281 C 114.859375 66.300781 113.96875 65.839844 113.191406 65.648438 C 112.398438 65.46875 111.140625 65.46875 110.359375 65.660156 Z M 110.359375 65.660156 "/>
<path style=" stroke:none;fill-rule:nonzero;fill:rgb(0%,0%,0%);fill-opacity:1;" d="M 130.050781 65.640625 C 128.558594 66.019531 127.738281 66.859375 127.628906 68.101562 C 127.480469 69.710938 128.269531 70.519531 130.601562 71.148438 C 132.699219 71.730469 132.910156 71.808594 133.28125 72.148438 C 133.621094 72.460938 133.648438 72.53125 133.648438 73.039062 C 133.648438 73.511719 133.609375 73.628906 133.359375 73.890625 C 132.890625 74.378906 132.300781 74.550781 131.148438 74.539062 C 130.019531 74.53125 129.199219 74.308594 128.371094 73.78125 C 128.109375 73.609375 127.878906 73.488281 127.859375 73.511719 C 127.699219 73.679688 127.398438 74.449219 127.441406 74.558594 C 127.519531 74.78125 128.238281 75.179688 129.070312 75.46875 C 129.769531 75.710938 129.988281 75.738281 131.199219 75.738281 C 132.359375 75.738281 132.628906 75.710938 133.109375 75.519531 C 134.371094 75.019531 134.980469 74.28125 135.078125 73.148438 C 135.148438 72.269531 134.941406 71.738281 134.28125 71.148438 C 133.761719 70.679688 133.351562 70.519531 130.898438 69.851562 C 129.511719 69.46875 129 69.039062 129 68.269531 C 129 66.820312 131.511719 66.230469 133.589844 67.199219 C 133.941406 67.371094 134.238281 67.488281 134.25 67.480469 C 134.308594 67.371094 134.699219 66.359375 134.679688 66.351562 C 134.488281 66.191406 133.621094 65.851562 133.03125 65.691406 C 132.148438 65.46875 130.820312 65.449219 130.050781 65.640625 Z M 130.050781 65.640625 "/>
<path style=" stroke:none;fill-rule:nonzero;fill:rgb(0%,0%,0%);fill-opacity:1;" d="M 163.828125 65.640625 C 161.921875 66.261719 160.871094 68.039062 160.871094 70.648438 C 160.871094 73 161.699219 74.648438 163.28125 75.421875 C 163.898438 75.730469 164.019531 75.75 164.949219 75.75 C 165.839844 75.75 166.019531 75.71875 166.570312 75.460938 C 167.78125 74.910156 168.671875 73.621094 168.949219 72.03125 C 169.449219 69.25 168.46875 66.699219 166.570312 65.839844 C 165.828125 65.511719 164.53125 65.410156 163.828125 65.640625 Z M 165.878906 66.960938 C 166.621094 67.261719 167.191406 68.011719 167.460938 69.050781 C 167.539062 69.320312 167.601562 70.039062 167.601562 70.648438 C 167.601562 72.230469 167.300781 73.191406 166.578125 73.871094 C 166.128906 74.300781 165.621094 74.5 164.949219 74.5 C 163.269531 74.5 162.300781 73.089844 162.300781 70.648438 C 162.300781 68.210938 163.261719 66.808594 164.929688 66.800781 C 165.25 66.800781 165.671875 66.871094 165.878906 66.960938 Z M 165.878906 66.960938 "/>
<path style=" stroke:none;fill-rule:nonzero;fill:rgb(0%,0%,0%);fill-opacity:1;" d="M 171.851562 65.660156 C 171.339844 65.851562 170.871094 66.308594 170.578125 66.890625 C 170.269531 67.53125 170.261719 68.941406 170.558594 69.609375 C 171.011719 70.589844 171.851562 71.070312 172.949219 70.980469 C 174.078125 70.890625 174.878906 69.921875 174.980469 68.519531 C 175.121094 66.429688 173.589844 65.019531 171.851562 65.660156 Z M 173.398438 66.578125 C 173.820312 66.890625 174.050781 67.46875 174.050781 68.25 C 174.050781 69.550781 173.480469 70.28125 172.539062 70.171875 C 171.699219 70.078125 171.289062 69.449219 171.289062 68.25 C 171.289062 67.5 171.488281 66.898438 171.839844 66.609375 C 172.238281 66.269531 172.949219 66.261719 173.398438 66.578125 Z M 173.398438 66.578125 "/>
<path style=" stroke:none;fill-rule:nonzero;fill:rgb(0%,0%,0%);fill-opacity:1;" d="M 236.128906 65.648438 C 235.359375 65.859375 234.890625 66.128906 234.429688 66.621094 C 233.941406 67.171875 233.761719 67.660156 233.769531 68.460938 C 233.78125 69.21875 233.988281 69.691406 234.570312 70.199219 C 235.101562 70.660156 235.601562 70.859375 237.300781 71.300781 C 239.328125 71.828125 239.820312 72.160156 239.820312 73.039062 C 239.820312 73.628906 239.511719 74.058594 238.910156 74.328125 C 238.539062 74.5 238.25 74.550781 237.449219 74.550781 C 236.300781 74.550781 235.371094 74.308594 234.570312 73.800781 C 234.308594 73.640625 234.070312 73.5 234.050781 73.5 C 234.019531 73.5 233.878906 73.730469 233.738281 74.019531 L 233.480469 74.539062 L 233.710938 74.730469 C 234.089844 75.039062 235.089844 75.460938 235.871094 75.640625 C 237.179688 75.929688 238.828125 75.789062 239.78125 75.308594 C 240.289062 75.050781 240.941406 74.328125 241.109375 73.839844 C 241.308594 73.25 241.269531 72.328125 241.019531 71.839844 C 240.589844 70.988281 239.859375 70.601562 237.761719 70.050781 C 235.660156 69.5 235.199219 69.199219 235.199219 68.320312 C 235.199219 67.398438 235.890625 66.839844 237.179688 66.730469 C 238 66.660156 239.140625 66.878906 239.871094 67.261719 C 240.128906 67.390625 240.359375 67.5 240.359375 67.5 C 240.398438 67.5 240.800781 66.5 240.800781 66.410156 C 240.800781 66.25 239.738281 65.800781 239.019531 65.640625 C 238.171875 65.46875 236.808594 65.46875 236.128906 65.648438 Z M 236.128906 65.648438 "/>
<path style=" stroke:none;fill-rule:nonzero;fill:rgb(0%,0%,0%);fill-opacity:1;" d="M 246.460938 65.660156 C 245.179688 65.96875 243.78125 67.03125 243.179688 68.160156 C 242.609375 69.21875 242.429688 70.820312 242.75 72.050781 C 243.210938 73.800781 244.699219 75.21875 246.519531 75.648438 C 248.28125 76.058594 250.398438 75.578125 251.410156 74.539062 L 251.738281 74.199219 L 251.328125 73.78125 C 250.878906 73.328125 250.878906 73.328125 250.160156 73.851562 C 249.46875 74.351562 248.761719 74.53125 247.710938 74.480469 C 246.660156 74.429688 245.941406 74.128906 245.21875 73.460938 C 244.589844 72.871094 244.230469 72.199219 244.078125 71.320312 C 243.78125 69.550781 244.648438 67.878906 246.28125 67.121094 C 246.78125 66.878906 246.96875 66.851562 247.898438 66.851562 C 249.101562 66.851562 249.628906 67 250.359375 67.558594 L 250.808594 67.910156 L 251.25 67.539062 C 251.5 67.339844 251.699219 67.121094 251.699219 67.050781 C 251.699219 66.890625 251.039062 66.378906 250.421875 66.058594 C 249.351562 65.519531 247.71875 65.351562 246.460938 65.660156 Z M 246.460938 65.660156 "/>
<path style=" stroke:none;fill-rule:nonzero;fill:rgb(0%,0%,0%);fill-opacity:1;" d="M 257.300781 65.570312 C 255.710938 65.839844 254.25 66.898438 253.558594 68.320312 C 252.148438 71.179688 253.488281 74.46875 256.480469 75.511719 C 257.21875 75.769531 258.691406 75.871094 259.519531 75.710938 C 260.519531 75.511719 261.558594 74.960938 262.25 74.261719 C 263.269531 73.230469 263.699219 72.148438 263.699219 70.648438 C 263.699219 69.148438 263.269531 68.070312 262.25 67.039062 C 261.589844 66.371094 260.539062 65.800781 259.621094 65.609375 C 259.109375 65.5 257.820312 65.480469 257.300781 65.570312 Z M 260.128906 67.179688 C 260.949219 67.589844 261.699219 68.378906 262.011719 69.179688 C 262.191406 69.621094 262.238281 69.949219 262.238281 70.648438 C 262.238281 71.351562 262.191406 71.679688 262.011719 72.121094 C 261.699219 72.921875 260.949219 73.710938 260.121094 74.121094 C 259.488281 74.429688 259.398438 74.449219 258.351562 74.449219 C 257.300781 74.449219 257.210938 74.429688 256.578125 74.121094 C 253.488281 72.601562 253.839844 68.011719 257.128906 66.941406 C 257.398438 66.851562 257.898438 66.808594 258.511719 66.828125 C 259.359375 66.851562 259.539062 66.890625 260.128906 67.179688 Z M 260.128906 67.179688 "/>
<path style=" stroke:none;fill-rule:nonzero;fill:rgb(0%,0%,0%);fill-opacity:1;" d="M 289.28125 65.660156 C 287.589844 66.070312 286.179688 67.328125 285.589844 68.960938 C 285.421875 69.429688 285.371094 69.78125 285.371094 70.648438 C 285.371094 71.519531 285.421875 71.871094 285.589844 72.339844 C 286.351562 74.460938 288.328125 75.800781 290.699219 75.800781 C 293.21875 75.800781 295.328125 74.230469 295.890625 71.960938 C 296.039062 71.339844 296.039062 69.96875 295.890625 69.339844 C 295.460938 67.558594 293.941406 66.089844 292.078125 65.648438 C 291.300781 65.46875 290.039062 65.46875 289.28125 65.660156 Z M 292.039062 67 C 293.078125 67.351562 293.78125 68 294.28125 69.078125 C 294.519531 69.578125 294.550781 69.769531 294.550781 70.648438 C 294.550781 71.558594 294.519531 71.710938 294.238281 72.300781 C 293.859375 73.101562 293.191406 73.789062 292.421875 74.171875 C 291.898438 74.429688 291.761719 74.449219 290.699219 74.449219 C 289.628906 74.449219 289.511719 74.429688 288.949219 74.160156 C 288.191406 73.78125 287.460938 73.058594 287.121094 72.320312 C 286.878906 71.808594 286.851562 71.628906 286.851562 70.648438 C 286.851562 69.71875 286.890625 69.46875 287.070312 69.070312 C 287.53125 68.070312 288.300781 67.359375 289.328125 66.988281 C 290.050781 66.738281 291.289062 66.738281 292.039062 67 Z M 292.039062 67 "/>
<path style=" stroke:none;fill-rule:nonzero;fill:rgb(0%,0%,0%);fill-opacity:1;" d="M 6.191406 68.859375 L 3.648438 72.109375 L 3.621094 72.660156 L 3.589844 73.199219 L 9.199219 73.199219 L 9.199219 75.699219 L 10.601562 75.699219 L 10.601562 73.199219 L 12.5 73.199219 L 12.5 72 L 10.601562 72 L 10.601562 69.800781 L 9.199219 69.800781 L 9.199219 72 L 7.300781 72 C 6.261719 72 5.398438 71.980469 5.398438 71.949219 C 5.398438 71.929688 6.5 70.488281 7.851562 68.75 L 10.300781 65.601562 L 8.730469 65.601562 Z M 6.191406 68.859375 "/>
<path style=" stroke:none;fill-rule:nonzero;fill:rgb(0%,0%,0%);fill-opacity:1;" d="M 30.121094 69.121094 C 30.160156 72.421875 30.179688 72.691406 30.378906 73.21875 C 30.800781 74.371094 31.488281 75.078125 32.601562 75.519531 C 33.058594 75.710938 33.339844 75.738281 34.398438 75.738281 C 35.480469 75.738281 35.730469 75.710938 36.25 75.5 C 37.058594 75.179688 37.96875 74.28125 38.300781 73.449219 C 38.539062 72.859375 38.550781 72.800781 38.578125 69.21875 L 38.609375 65.601562 L 37.210938 65.601562 L 37.179688 69.121094 L 37.148438 72.648438 L 36.871094 73.179688 C 36.558594 73.769531 35.980469 74.238281 35.359375 74.410156 C 35.128906 74.46875 34.589844 74.5 34.148438 74.480469 C 33.210938 74.429688 32.671875 74.191406 32.210938 73.628906 C 31.621094 72.921875 31.578125 72.601562 31.519531 68.921875 L 31.480469 65.601562 L 30.078125 65.601562 Z M 30.121094 69.121094 "/>
<path style=" stroke:none;fill-rule:nonzero;fill:rgb(0%,0%,0%);fill-opacity:1;" d="M 45.5 70.648438 L 45.5 75.699219 L 46.898438 75.699219 L 46.921875 72.101562 L 46.949219 68.5 L 48.75 71.5 C 50.5 74.421875 50.558594 74.5 50.859375 74.5 C 51.171875 74.5 51.230469 74.421875 52.960938 71.488281 L 54.75 68.488281 L 54.808594 70.921875 C 54.839844 72.261719 54.878906 73.878906 54.890625 74.519531 L 54.898438 75.699219 L 56.199219 75.699219 L 56.199219 65.601562 L 55.039062 65.601562 L 52.988281 69.101562 C 51.871094 71.019531 50.921875 72.601562 50.890625 72.601562 C 50.851562 72.601562 49.890625 71.019531 48.75 69.101562 L 46.679688 65.601562 L 45.5 65.601562 Z M 45.5 70.648438 "/>
<path style=" stroke:none;fill-rule:nonzero;fill:rgb(0%,0%,0%);fill-opacity:1;" d="M 60.101562 70.519531 C 58.878906 73.230469 57.851562 75.511719 57.828125 75.570312 C 57.789062 75.671875 57.96875 75.699219 58.519531 75.699219 L 59.261719 75.699219 L 59.800781 74.449219 L 60.328125 73.199219 L 65.75 73.199219 L 66.289062 74.449219 L 66.839844 75.699219 L 67.578125 75.699219 C 68.238281 75.699219 68.308594 75.679688 68.25 75.519531 C 68.21875 75.429688 67.191406 73.160156 65.96875 70.46875 L 63.761719 65.601562 L 62.328125 65.601562 Z M 64.140625 69.550781 L 65.191406 71.949219 L 63.078125 71.980469 C 61.921875 71.988281 60.949219 71.988281 60.929688 71.96875 C 60.910156 71.949219 61.378906 70.839844 61.960938 69.511719 C 62.550781 68.179688 63.039062 67.109375 63.058594 67.121094 C 63.070312 67.140625 63.558594 68.230469 64.140625 69.550781 Z M 64.140625 69.550781 "/>
<path style=" stroke:none;fill-rule:nonzero;fill:rgb(0%,0%,0%);fill-opacity:1;" d="M 69.898438 70.648438 L 69.898438 75.699219 L 71.300781 75.699219 L 71.300781 65.601562 L 69.898438 65.601562 Z M 69.898438 70.648438 "/>
<path style=" stroke:none;fill-rule:nonzero;fill:rgb(0%,0%,0%);fill-opacity:1;" d="M 87.199219 70.648438 L 87.199219 75.699219 L 88.601562 75.699219 L 88.601562 72.601562 L 90.328125 72.601562 C 92.679688 72.601562 93.5 72.378906 94.371094 71.511719 C 95.058594 70.820312 95.25 70.308594 95.25 69.148438 C 95.25 68.261719 95.21875 68.089844 94.96875 67.578125 C 94.671875 66.960938 94.128906 66.421875 93.488281 66.101562 C 92.730469 65.710938 91.898438 65.601562 89.480469 65.601562 L 87.199219 65.601562 Z M 92.390625 67.050781 C 93.390625 67.398438 93.839844 68.03125 93.839844 69.101562 C 93.851562 69.878906 93.621094 70.398438 93.101562 70.808594 C 92.550781 71.25 91.769531 71.398438 90.078125 71.398438 L 88.601562 71.398438 L 88.601562 66.898438 L 90.289062 66.898438 C 91.519531 66.898438 92.089844 66.941406 92.390625 67.050781 Z M 92.390625 67.050781 "/>
<path style=" stroke:none;fill-rule:nonzero;fill:rgb(0%,0%,0%);fill-opacity:1;" d="M 97.601562 70.648438 L 97.601562 75.699219 L 104.898438 75.699219 L 104.898438 74.398438 L 99 74.398438 L 99 71.199219 L 104.101562 71.199219 L 104.101562 70 L 101.578125 69.980469 L 99.050781 69.949219 L 99.019531 68.421875 L 98.988281 66.898438 L 104.699219 66.898438 L 104.699219 65.601562 L 97.601562 65.601562 Z M 97.601562 70.648438 "/>
<path style=" stroke:none;fill-rule:nonzero;fill:rgb(0%,0%,0%);fill-opacity:1;" d="M 118.550781 70.460938 C 117.339844 73.140625 116.320312 75.410156 116.28125 75.519531 C 116.210938 75.679688 116.269531 75.699219 116.941406 75.699219 L 117.679688 75.699219 L 118.210938 74.449219 L 118.75 73.199219 L 124.160156 73.199219 L 124.710938 74.449219 L 125.25 75.699219 L 126.78125 75.699219 L 124.488281 70.671875 L 122.210938 65.648438 L 121.480469 65.621094 L 120.75 65.601562 Z M 122.648438 69.738281 C 123.171875 70.941406 123.589844 71.941406 123.570312 71.96875 C 123.550781 71.988281 122.578125 71.988281 121.421875 71.980469 L 119.320312 71.949219 L 120.378906 69.53125 C 121.351562 67.328125 121.460938 67.128906 121.570312 67.328125 C 121.628906 67.460938 122.121094 68.539062 122.648438 69.738281 Z M 122.648438 69.738281 "/>
<path style=" stroke:none;fill-rule:nonzero;fill:rgb(0%,0%,0%);fill-opacity:1;" d="M 152.421875 66.21875 L 152.449219 66.851562 L 154.828125 66.898438 L 157.21875 66.949219 L 156.011719 68.429688 C 154.800781 69.921875 154.800781 69.921875 154.800781 70.449219 L 154.800781 70.980469 L 155.738281 71.019531 C 157.308594 71.089844 158.039062 71.640625 158.039062 72.75 C 158.039062 73.390625 157.761719 73.871094 157.179688 74.199219 C 156.789062 74.429688 156.640625 74.449219 155.601562 74.441406 C 154.351562 74.441406 153.71875 74.261719 153.011719 73.730469 C 152.679688 73.46875 152.671875 73.46875 152.53125 73.660156 C 152.449219 73.761719 152.289062 74.019531 152.191406 74.230469 C 151.949219 74.691406 151.960938 74.710938 152.949219 75.199219 C 153.820312 75.628906 154.851562 75.828125 156 75.769531 C 157.269531 75.710938 157.96875 75.441406 158.660156 74.75 C 160.351562 73.070312 159.371094 70.25 156.980469 69.941406 C 156.71875 69.898438 156.5 69.851562 156.5 69.828125 C 156.5 69.808594 157.089844 69.070312 157.800781 68.179688 C 159.070312 66.621094 159.101562 66.570312 159.101562 66.089844 L 159.101562 65.601562 L 152.390625 65.601562 Z M 152.421875 66.21875 "/>
<path style=" stroke:none;fill-rule:nonzero;fill:rgb(0%,0%,0%);fill-opacity:1;" d="M 175.390625 70.519531 C 173.539062 73.230469 172 75.511719 171.960938 75.570312 C 171.910156 75.671875 172.019531 75.699219 172.429688 75.699219 L 172.960938 75.699219 L 176.359375 70.730469 C 178.21875 68 179.769531 65.730469 179.78125 65.679688 C 179.800781 65.640625 179.578125 65.601562 179.28125 65.601562 L 178.75 65.601562 Z M 175.390625 70.519531 "/>
<path style=" stroke:none;fill-rule:nonzero;fill:rgb(0%,0%,0%);fill-opacity:1;" d="M 187.300781 70.660156 L 187.300781 75.71875 L 190.128906 75.679688 C 192.859375 75.640625 192.96875 75.628906 193.660156 75.390625 C 194.96875 74.910156 195.929688 74.121094 196.46875 73.050781 C 196.859375 72.308594 197 71.648438 197 70.648438 C 197 70.148438 196.941406 69.519531 196.859375 69.25 C 196.390625 67.488281 194.929688 66.148438 193.03125 65.75 C 192.539062 65.640625 191.628906 65.601562 189.828125 65.601562 L 187.300781 65.601562 Z M 193.410156 67.210938 C 194.808594 67.871094 195.601562 69.109375 195.601562 70.648438 C 195.601562 72.191406 194.808594 73.429688 193.410156 74.089844 C 192.871094 74.339844 192.769531 74.351562 190.828125 74.378906 L 188.800781 74.421875 L 188.800781 66.878906 L 190.828125 66.921875 C 192.769531 66.949219 192.871094 66.960938 193.410156 67.210938 Z M 193.410156 67.210938 "/>
<path style=" stroke:none;fill-rule:nonzero;fill:rgb(0%,0%,0%);fill-opacity:1;" d="M 199.300781 70.648438 L 199.300781 75.699219 L 206.601562 75.699219 L 206.601562 74.398438 L 200.699219 74.398438 L 200.699219 71.199219 L 205.800781 71.199219 L 205.800781 70 L 200.699219 70 L 200.699219 66.898438 L 206.398438 66.898438 L 206.398438 65.601562 L 199.300781 65.601562 Z M 199.300781 70.648438 "/>
<path style=" stroke:none;fill-rule:nonzero;fill:rgb(0%,0%,0%);fill-opacity:1;" d="M 212.800781 70.648438 L 212.800781 75.699219 L 215.28125 75.699219 C 218.101562 75.699219 218.738281 75.609375 219.878906 75.039062 C 221.578125 74.210938 222.5 72.660156 222.5 70.648438 C 222.5 68.640625 221.578125 67.089844 219.878906 66.261719 C 218.738281 65.691406 218.101562 65.601562 215.28125 65.601562 L 212.800781 65.601562 Z M 218.820312 67.179688 C 220.421875 67.820312 221.320312 69.53125 221.019531 71.320312 C 220.789062 72.621094 219.980469 73.648438 218.820312 74.121094 C 218.308594 74.320312 218.039062 74.351562 216.28125 74.378906 L 214.300781 74.421875 L 214.300781 66.878906 L 216.28125 66.921875 C 218.039062 66.949219 218.308594 66.980469 218.820312 67.179688 Z M 218.820312 67.179688 "/>
<path style=" stroke:none;fill-rule:nonzero;fill:rgb(0%,0%,0%);fill-opacity:1;" d="M 224.699219 70.648438 L 224.699219 75.699219 L 232.109375 75.699219 L 232.078125 75.070312 L 232.050781 74.449219 L 229.128906 74.421875 L 226.199219 74.398438 L 226.199219 71.199219 L 231.199219 71.199219 L 231.199219 70 L 226.199219 70 L 226.199219 66.898438 L 229.03125 66.878906 L 231.851562 66.851562 L 231.878906 66.21875 L 231.910156 65.601562 L 224.699219 65.601562 Z M 224.699219 70.648438 "/>
<path style=" stroke:none;fill-rule:nonzero;fill:rgb(0%,0%,0%);fill-opacity:1;" d="M 265.898438 70.648438 L 265.898438 75.699219 L 267.398438 75.699219 L 267.398438 68.179688 L 270.421875 71.941406 L 273.441406 75.699219 L 274.601562 75.699219 L 274.601562 65.601562 L 273.199219 65.601562 L 273.179688 69.351562 L 273.148438 73.089844 L 270.148438 69.351562 L 267.148438 65.609375 L 266.53125 65.601562 L 265.898438 65.601562 Z M 265.898438 70.648438 "/>
<path style=" stroke:none;fill-rule:nonzero;fill:rgb(0%,0%,0%);fill-opacity:1;" d="M 276.21875 66.21875 L 276.25 66.851562 L 277.980469 66.878906 L 279.699219 66.898438 L 279.699219 75.699219 L 281.101562 75.699219 L 281.101562 66.898438 L 282.828125 66.878906 L 284.550781 66.851562 L 284.578125 66.21875 L 284.609375 65.601562 L 276.191406 65.601562 Z M 276.21875 66.21875 "/>
<path style=" stroke:none;fill-rule:nonzero;fill:rgb(0%,0%,0%);fill-opacity:1;" d="M 140.601562 68.949219 L 140.601562 69.5 L 147 69.5 L 147 68.398438 L 140.601562 68.398438 Z M 140.601562 68.949219 "/>
<path style=" stroke:none;fill-rule:nonzero;fill:rgb(0%,0%,0%);fill-opacity:1;" d="M 178 70.519531 C 177.128906 70.980469 176.609375 72.179688 176.738281 73.421875 C 176.96875 75.609375 179.160156 76.570312 180.621094 75.109375 C 181.46875 74.261719 181.648438 72.730469 181.039062 71.519531 C 180.609375 70.699219 180.101562 70.359375 179.171875 70.320312 C 178.558594 70.289062 178.378906 70.320312 178 70.519531 Z M 179.960938 71.53125 C 180.578125 72.210938 180.628906 73.699219 180.050781 74.460938 C 179.539062 75.128906 178.558594 75.128906 178.050781 74.460938 C 177.460938 73.691406 177.53125 72.078125 178.179688 71.480469 C 178.539062 71.140625 178.671875 71.101562 179.199219 71.140625 C 179.550781 71.171875 179.710938 71.25 179.960938 71.53125 Z M 179.960938 71.53125 "/>
<path style=" stroke:none;fill-rule:nonzero;fill:rgb(0%,0%,0%);fill-opacity:1;" d="M 140.601562 72.351562 L 140.601562 72.898438 L 147 72.898438 L 147 71.800781 L 140.601562 71.800781 Z M 140.601562 72.351562 "/>
</g>
</svg>
